<?xml version="1.0" standalone="no"?>
<svg viewBox="0 0 200 200" xmlns="http://www.w3.org/2000/svg">
  <path fill="#FF0066" d="M41.8,-70.4C54.1,-65.3,64.1,-54,73,-41.3C81.9,-28.5,89.7,-14.2,88.3,-0.8C86.9,12.6,76.3,25.3,66.3,36.2C56.3,47.1,47,56.2,36.1,63.2C25.2,70.2,12.6,75,1.3,72.8C-9.9,70.5,-19.9,61,-29.8,53.5C-39.8,45.9,-49.8,40.2,-53.7,31.6C-57.6,23,-55.4,11.5,-59.5,-2.4C-63.7,-16.3,-74.2,-32.6,-73.5,-46.8C-72.9,-61,-61,-73.1,-46.9,-77.2C-32.8,-81.2,-16.4,-77.3,-0.8,-75.8C14.7,-74.3,29.5,-75.4,41.8,-70.4Z" transform="translate(100 100)" />
</svg>
